<svg xmlns="http://www.w3.org/2000/svg" viewBox="0 0 1200 400" width="1200" height="400">
  <defs>
    <linearGradient id="bg" x1="0%" y1="0%" x2="100%" y2="100%">
      <stop offset="0%" style="stop-color:#0a0a0a"/>
      <stop offset="50%" style="stop-color:#111111"/>
      <stop offset="100%" style="stop-color:#0d0d0d"/>
    </linearGradient>
    <radialGradient id="glow1" cx="20%" cy="60%" r="35%">
      <stop offset="0%" style="stop-color:#3498DB;stop-opacity:0.15"/>
      <stop offset="100%" style="stop-color:#3498DB;stop-opacity:0"/>
    </radialGradient>
    <radialGradient id="glow2" cx="35%" cy="30%" r="25%">
      <stop offset="0%" style="stop-color:#3498DB;stop-opacity:0.1"/>
      <stop offset="100%" style="stop-color:#3498DB;stop-opacity:0"/>
    </radialGradient>
  </defs>
  <rect width="1200" height="400" fill="url(#bg)"/>
  <rect width="1200" height="400" fill="url(#glow1)"/>
  <rect width="1200" height="400" fill="url(#glow2)"/>
  <circle cx="340" cy="313" r="1.433858887699066" fill="white" opacity="0.6"/>
  <circle cx="529" cy="303" r="3.8513971535430405" fill="white" opacity="0.3"/>
  <circle cx="332" cy="176" r="3.1792409428041335" fill="white" opacity="0.5"/>
  <circle cx="99" cy="33" r="3.9402550128409963" fill="white" opacity="0.4"/>
  <circle cx="512" cy="296" r="2.082457277220926" fill="white" opacity="0.2"/>
  <circle cx="237" cy="283" r="3.6857457648206315" fill="white" opacity="0.4"/>
  <circle cx="220" cy="166" r="1.3905216070564657" fill="white" opacity="0.2"/>
  <circle cx="596" cy="198" r="1.2645359651973935" fill="white" opacity="0.6"/>
  <circle cx="610" cy="243" r="3.9601680854294554" fill="white" opacity="0.4"/>
  <circle cx="620" cy="212" r="3.3261240204018083" fill="white" opacity="0.4"/>
  <circle cx="279" cy="297" r="1.844135794122557" fill="white" opacity="0.4"/>
  <circle cx="568" cy="98" r="2.027174508998266" fill="white" opacity="0.5"/>
  <circle cx="410" cy="117" r="3.601572923927436" fill="white" opacity="0.8"/>
  <circle cx="342" cy="221" r="3.035539807762671" fill="white" opacity="0.5"/>
  <circle cx="455" cy="87" r="3.8992121950656924" fill="white" opacity="0.5"/>
  <circle cx="368" cy="265" r="2.0079454841538706" fill="white" opacity="0.4"/>
  <circle cx="517" cy="349" r="2.3425460503304345" fill="white" opacity="0.6"/>
  <circle cx="445" cy="45" r="3.223302936998591" fill="white" opacity="0.8"/>
  <circle cx="131" cy="300" r="1.0496937056389153" fill="white" opacity="0.3"/>
  <circle cx="78" cy="245" r="2.4356190787607668" fill="white" opacity="0.8"/>
  <circle cx="498" cy="149" r="2.7807957584432055" fill="white" opacity="0.7"/>
  <circle cx="198" cy="286" r="1.1256902375297886" fill="white" opacity="0.6"/>
  <circle cx="226" cy="317" r="1.8618261264228069" fill="white" opacity="0.8"/>
  <circle cx="185" cy="173" r="2.5693145445532997" fill="white" opacity="0.3"/>
  <circle cx="111" cy="257" r="2.02707043035225" fill="white" opacity="0.4"/>
  <circle cx="138" cy="194" r="3.5493961999143706" fill="white" opacity="0.4"/>
  <circle cx="562" cy="166" r="2.4595539372913953" fill="white" opacity="0.4"/>
  <circle cx="291" cy="282" r="3.0477611693426585" fill="white" opacity="0.5"/>
  <circle cx="183" cy="174" r="2.721047929243637" fill="white" opacity="0.3"/>
  <circle cx="371" cy="181" r="3.7829717551776807" fill="white" opacity="0.8"/>
  <circle cx="593" cy="111" r="3.1148400732170973" fill="white" opacity="0.8"/>
  <circle cx="522" cy="54" r="1.6824311850011122" fill="white" opacity="0.8"/>
  <circle cx="152" cy="369" r="2.2139960372409013" fill="white" opacity="0.5"/>
  <circle cx="444" cy="347" r="2.6845237811190996" fill="white" opacity="0.3"/>
  <circle cx="374" cy="134" r="1.5686736731722055" fill="white" opacity="0.6"/>
  <circle cx="271" cy="81" r="1.4141865029365777" fill="white" opacity="0.5"/>
  <circle cx="311" cy="140" r="3.316557790709941" fill="white" opacity="0.7"/>
  <circle cx="108" cy="106" r="3.1497892006718793" fill="white" opacity="0.3"/>
  <circle cx="393" cy="216" r="3.23231486745855" fill="white" opacity="0.6"/>
  <circle cx="454" cy="137" r="2.1568062049209478" fill="white" opacity="0.9"/>
  <circle cx="552" cy="281" r="3.78539937967066" fill="white" opacity="0.2"/>
  <circle cx="152" cy="277" r="3.9378446664635036" fill="white" opacity="0.4"/>
  <circle cx="547" cy="46" r="2.2035280316065173" fill="white" opacity="0.7"/>
  <circle cx="408" cy="355" r="1.6482577598226449" fill="white" opacity="0.2"/>
  <circle cx="462" cy="203" r="2.4398945102191396" fill="white" opacity="0.5"/>
  <circle cx="553" cy="70" r="3.121150315723546" fill="white" opacity="0.3"/>
  <circle cx="435" cy="341" r="1.8304369999062573" fill="white" opacity="0.3"/>
  <circle cx="480" cy="57" r="1.5358345354209173" fill="white" opacity="0.8"/>
  <circle cx="79" cy="289" r="1.8386362585152543" fill="white" opacity="0.7"/>
  <circle cx="519" cy="70" r="1.278348661080312" fill="white" opacity="0.6"/>
  <circle cx="117" cy="178" r="3.4295031311060677" fill="white" opacity="0.2"/>
  <circle cx="546" cy="32" r="2.1448893940561318" fill="white" opacity="0.5"/>
  <circle cx="576" cy="304" r="3.855290649218874" fill="white" opacity="0.9"/>
  <circle cx="304" cy="256" r="3.2366929148174224" fill="white" opacity="0.8"/>
  <circle cx="91" cy="323" r="3.466347726145829" fill="white" opacity="0.8"/>
  <circle cx="265" cy="299" r="1.4600311552102776" fill="white" opacity="0.3"/>
  <circle cx="229" cy="77" r="2.567572824895808" fill="white" opacity="0.2"/>
  <circle cx="393" cy="325" r="1.113447384992045" fill="white" opacity="0.5"/>
  <circle cx="555" cy="123" r="1.2284748376445833" fill="white" opacity="0.3"/>
  <circle cx="143" cy="260" r="1.9430107114569954" fill="white" opacity="0.3"/>
  <line x1="217" y1="152" x2="295" y2="184" stroke="white" stroke-width="0.5" opacity="0.15"/>
  <line x1="305" y1="38" x2="346" y2="98" stroke="white" stroke-width="0.5" opacity="0.15"/>
  <line x1="526" y1="262" x2="630" y2="274" stroke="white" stroke-width="0.5" opacity="0.15"/>
  <line x1="78" y1="84" x2="142" y2="39" stroke="white" stroke-width="0.5" opacity="0.15"/>
  <line x1="584" y1="71" x2="673" y2="123" stroke="white" stroke-width="0.5" opacity="0.15"/>
  <line x1="530" y1="195" x2="637" y2="149" stroke="white" stroke-width="0.5" opacity="0.15"/>
  <line x1="557" y1="210" x2="671" y2="143" stroke="white" stroke-width="0.5" opacity="0.15"/>
  <line x1="585" y1="296" x2="678" y2="222" stroke="white" stroke-width="0.5" opacity="0.15"/>
  <line x1="523" y1="355" x2="613" y2="435" stroke="white" stroke-width="0.5" opacity="0.15"/>
  <line x1="63" y1="304" x2="176" y2="263" stroke="white" stroke-width="0.5" opacity="0.15"/>
  <line x1="54" y1="313" x2="157" y2="301" stroke="white" stroke-width="0.5" opacity="0.15"/>
  <line x1="45" y1="49" x2="139" y2="103" stroke="white" stroke-width="0.5" opacity="0.15"/>
  <line x1="452" y1="135" x2="493" y2="196" stroke="white" stroke-width="0.5" opacity="0.15"/>
  <line x1="337" y1="181" x2="397" y2="230" stroke="white" stroke-width="0.5" opacity="0.15"/>
  <line x1="491" y1="153" x2="548" y2="155" stroke="white" stroke-width="0.5" opacity="0.15"/>

  <line x1="650" y1="60" x2="650" y2="340" stroke="white" stroke-width="0.5" opacity="0.15"/>
  <text x="680" y="155" font-family="'SF Pro Display','Helvetica Neue',Arial,sans-serif" font-size="88" font-weight="800" fill="white" letter-spacing="8">WORKFLOW ENGINE</text>
  <text x="680" y="200" font-family="'SF Pro Display','Helvetica Neue',Arial,sans-serif" font-size="18" font-weight="400" fill="white" opacity="0.85" letter-spacing="3">WORKFLOW ENGINE</text>
  <text x="680" y="230" font-family="'Noto Sans SC','PingFang SC','Microsoft YaHei',sans-serif" font-size="16" font-weight="300" fill="white" opacity="0.6" letter-spacing="2">DAG 调度 · 可视化编辑器 · 7 种节点类型 · 条件分支 · 并行执行</text>
  <text x="680" y="280" font-family="'SF Mono','Fira Code','Consolas',monospace" font-size="13" fill="white" opacity="0.45" letter-spacing="1.5">FastAPI · Vue.js · Python</text>
  <line x1="680" y1="310" x2="1140" y2="310" stroke="white" stroke-width="0.5" opacity="0.15"/>
  <text x="680" y="340" font-family="'SF Mono','Fira Code','Consolas',monospace" font-size="11" fill="white" opacity="0.35" letter-spacing="1">WORKFLOW · DAG · ORCHESTRATION · AUTOMATION</text>
</svg>